PathFileType	4	(X/Y/Z)	D:\TRACE\spot_10-12-23\spot_body_motion_3_4-platform.trc
DataRate	CameraRate	NumFrames	NumMarkers	Units	OrigDataRate	OrigDataStartFrame	OrigNumFrames
100.00	100.00	      30	5	mm	100.00	3501	      7000
Frame#	Time	Left_Front			Right_Front			Left_Aft			Right_Aft			Post			
		X1	Y1	Z1	X2	Y2	Z2	X3	Y3	Z3	X4	Y4	Z4	X5	Y5	Z5	

3501	35.000	-790.62207	37.45773	-633.40063	781.95392	41.79635	-626.53754	-707.48621	-16.07589	503.14719	709.82910	-15.96178	588.71191	-7.99082	789.00055	-916.42987	
3502	35.010	-791.22876	37.38364	-633.44666	781.02802	41.74496	-626.66449	-707.94678	-16.36120	503.44641	708.94031	-15.95798	588.72369	-8.93497	789.02344	-916.53040	
3503	35.020	-792.27997	37.72379	-633.51361	780.34778	41.82527	-626.76233	-708.88239	-16.38717	503.24155	708.29767	-16.04433	588.79858	-9.57125	789.07263	-916.62463	
3504	35.030	-793.03143	37.77280	-633.28424	779.62891	41.98531	-626.59686	-709.69330	-16.18839	503.20285	707.57635	-16.04315	588.77551	-10.02588	789.12128	-916.47571	
3505	35.040	-793.72040	37.61895	-633.36517	778.90784	41.96948	-626.53040	-710.32648	-16.09140	503.10867	706.82611	-16.06217	588.69348	-10.76576	789.19354	-916.45184	
3506	35.050	-794.32477	37.60198	-633.19922	778.18018	41.94583	-626.51971	-711.10248	-16.50648	503.30667	706.00378	-16.06398	588.75031	-11.78160	789.22119	-916.61688	
3507	35.060	-795.06415	37.55642	-633.35406	777.51251	41.84650	-626.60962	-711.76276	-16.45044	503.44275	705.28253	-16.13062	588.91925	-12.60809	789.29248	-916.81262	
3508	35.070	-795.96313	37.85178	-633.37451	777.01624	41.83309	-626.55548	-712.45392	-16.30331	503.46844	704.75439	-16.04889	588.99908	-13.01392	789.31860	-916.90460	
3509	35.080	-796.53796	37.96096	-633.45343	776.22473	41.88803	-626.40289	-713.17535	-16.34002	503.47202	704.08899	-16.01329	588.94556	-13.53385	789.39069	-916.83881	
3510	35.090	-797.29144	37.72527	-633.33594	775.47266	41.97850	-626.49774	-713.90485	-16.26950	503.04419	703.27350	-16.00730	588.82611	-14.38601	789.29828	-916.77472	
3511	35.100	-797.94489	37.56892	-633.15845	774.60303	41.99559	-626.73022	-714.85950	-16.26043	503.03226	702.53577	-16.02808	588.82251	-15.36218	789.20758	-916.62030	
3512	35.110	-798.57758	37.56314	-633.30688	773.78131	41.92841	-626.76337	-715.47607	-16.21446	503.28860	701.72900	-15.98404	588.91327	-16.08771	789.22009	-916.58282	
3513	35.120	-799.56720	37.71073	-633.39795	773.13623	41.65892	-626.74847	-716.05957	-16.07675	503.09717	701.22333	-15.94546	588.99860	-16.86154	789.11517	-916.64630	
3514	35.130	-800.19580	37.68275	-633.49377	772.55444	41.70650	-626.60181	-716.84290	-16.10020	503.30945	700.34393	-15.85690	588.86847	-17.42949	788.97858	-916.72974	
3515	35.140	-800.79718	37.43876	-633.43781	771.81958	41.54576	-626.63660	-717.40692	-16.04584	503.37885	699.75909	-15.73584	588.87671	-18.02977	788.75317	-916.74854	
3516	35.150	-801.45795	37.07943	-633.44171	771.06482	41.29312	-626.74445	-718.18640	-15.94655	503.33682	699.02600	-15.57747	588.91791	-18.76008	788.51404	-916.77692	
3517	35.160	-801.88263	36.86102	-633.58136	770.65765	41.16063	-626.75800	-718.51746	-15.90131	503.20554	698.42828	-15.47303	588.88953	-19.44143	788.27106	-917.02026	
3518	35.170	-802.82428	36.86555	-633.78271	770.07935	40.99504	-626.62769	-719.61139	-15.72062	503.13791	697.78265	-15.30580	588.86090	-20.09516	788.08228	-917.36926	
3519	35.180	-803.66541	36.94809	-633.68243	769.15637	40.80339	-626.72809	-720.16608	-15.63974	503.16150	697.02051	-15.11429	588.79645	-20.71339	787.81201	-917.70929	
3520	35.190	-804.36707	36.54545	-633.71075	768.21130	40.49973	-627.01691	-720.92761	-15.44262	502.80301	696.38135	-14.97188	588.76373	-21.27455	787.47101	-918.08636	
3521	35.200	-804.83331	36.42685	-633.71344	767.74023	40.33945	-627.05896	-721.51245	-15.22981	502.86734	695.83429	-14.89489	588.76904	-22.09864	787.16693	-918.66626	
3522	35.210	-805.37714	36.37192	-633.84283	767.34357	40.16038	-626.97247	-721.96130	-15.36377	503.21286	695.28937	-14.79321	588.82330	-22.73078	787.05713	-919.05603	
3523	35.220	-806.08270	36.12611	-633.87524	766.71698	40.02183	-626.98975	-722.77692	-15.03370	502.85596	694.36682	-14.54211	588.77991	-23.19777	786.81342	-919.34473	
3524	35.230	-806.73792	35.78849	-634.00958	766.01086	39.83585	-627.07629	-723.40094	-14.87552	502.74661	693.66522	-14.40623	588.70056	-23.71486	786.63098	-919.71881	
3525	35.240	-807.43726	35.57577	-634.09741	765.34259	39.63877	-627.14630	-724.04358	-14.79324	502.91537	693.18414	-14.15774	588.68604	-24.48667	786.18909	-920.11462	
3526	35.250	-807.92590	35.33105	-634.13800	764.88129	39.48429	-627.20337	-724.64642	-14.51206	502.60904	692.80792	-13.92469	588.61652	-25.13209	785.82025	-920.51154	
3527	35.260	-808.32117	34.91087	-634.13214	764.29364	39.07185	-627.23285	-725.14227	-14.41562	502.47748	692.19824	-13.66377	588.50006	-25.64845	785.37006	-920.62592	
3528	35.270	-808.87360	34.51337	-634.05786	763.66125	38.76590	-627.50623	-725.73077	-14.20287	502.40363	691.52856	-13.51204	588.34595	-26.08917	784.81769	-920.84485	
3529	35.280	-809.39099	34.17656	-634.11511	763.04297	38.56367	-627.61334	-726.26953	-13.87688	502.47281	691.04480	-13.36536	588.29510	-26.48926	784.53070	-921.00012	
3530	35.290	-810.02692	34.10062	-634.41418	762.38763	38.32368	-627.55194	-726.78876	-13.66838	502.44199	690.44659	-13.04751	588.23761	-27.05994	784.20288	-921.34436	
